<svg xmlns="http://www.w3.org/2000/svg" xmlns:xlink="http://www.w3.org/1999/xlink" width="381.12" height="380.72" viewBox="0 0 381.12 380.72">
  <defs>
    <linearGradient id="linear-gradient" x1="0.249" y1="0.079" x2="0.859" y2="0.868" gradientUnits="objectBoundingBox">
      <stop offset="0" stop-color="#ffd200"/>
      <stop offset="1" stop-color="#ff8d00"/>
    </linearGradient>
  </defs>
  <g id="tire" transform="translate(0 -0.2)">
    <g id="Groupe_1" data-name="Groupe 1">
      <path id="Tracé_1" data-name="Tracé 1" d="M380,195.96a44.323,44.323,0,0,0-7.04-5.92,19.92,19.92,0,0,0-16-3.92,8.011,8.011,0,0,1-4.56-15.36,31.278,31.278,0,0,1,19.76.88,44.969,44.969,0,0,1,8,4.08,189.275,189.275,0,0,0-26.64-83.44,63.3,63.3,0,0,0-9.6,0c-8,0-14.24,2.08-15.2,4.32A8.01,8.01,0,0,1,314,90.28,24.8,24.8,0,0,1,333.28,77.4a63.925,63.925,0,0,1,9.12-1.36,192,192,0,0,0-58.64-51.28,76.673,76.673,0,0,0-8,4.48c-8.56,5.12-16,11.2-17.12,14.8a8,8,0,0,1-8,6.16H248.8a8,8,0,0,1-5.92-9.6,38,38,0,0,1,15.6-19.04c2.72-2,5.44-3.76,8-5.36A189.362,189.362,0,0,0,190.56.2h-5.68A7.932,7.932,0,0,1,184,1.32a46.166,46.166,0,0,0-6.08,7.2A28.162,28.162,0,0,0,172,24.92a8,8,0,1,1-16,0A36.476,36.476,0,0,1,158.4,11a49.777,49.777,0,0,1,4.48-8.88,189.192,189.192,0,0,0-75.6,28.56v.56A68.213,68.213,0,0,0,86.4,41a27.122,27.122,0,0,0,3.44,17.68,8.29,8.29,0,1,1-11.44,12,29.364,29.364,0,0,1-8-17.36,62.213,62.213,0,0,1,0-10.16A192,192,0,0,0,25.68,95.8a8.015,8.015,0,0,1,.56,2.56,54.72,54.72,0,0,0,1.6,10.24,30.641,30.641,0,0,0,11.12,18.08,8.1,8.1,0,0,1-8.56,13.76,38.407,38.407,0,0,1-11.44-11.76,52.4,52.4,0,0,1-4.56-10,189.347,189.347,0,0,0-14.4,72v6a7.241,7.241,0,0,1,.96.72,57.272,57.272,0,0,0,7.36,6.08A37.846,37.846,0,0,0,27.68,211a8,8,0,0,1,0,16,45.759,45.759,0,0,1-16-4,63.16,63.16,0,0,1-8.88-4.72,189.121,189.121,0,0,0,26.64,72.64,7.3,7.3,0,0,1,1.76,0,51.445,51.445,0,0,0,9.52,2.4,23.282,23.282,0,0,0,15.36-1.6,8,8,0,1,1,8.64,13.44,29.761,29.761,0,0,1-11.68,4.16,41.971,41.971,0,0,1-6.4.56h-3.6a192,192,0,0,0,56.72,47.6,8.018,8.018,0,0,1,1.6-.64,37.8,37.8,0,0,0,8.88-2.96,20.72,20.72,0,0,0,11.36-10.64,8,8,0,1,1,15.194,5.014c-.047.143-.1.285-.154.426a31.278,31.278,0,0,1-8.88,12.8,42.1,42.1,0,0,1-8,5.44,189.206,189.206,0,0,0,70.96,14v-.56a65.195,65.195,0,0,0,6.4-8,39.277,39.277,0,0,0,8.64-16,7.994,7.994,0,0,1,15.071-5.336c.017.045.033.091.049.136a24.48,24.48,0,0,1-3.36,19.04A76.62,76.62,0,0,1,212,379a189.19,189.19,0,0,0,77.12-26.08,67.4,67.4,0,0,0,0-9.68,22.8,22.8,0,0,0-2.48-12,7.984,7.984,0,0,1,7.646-14.018l.034.018a21.52,21.52,0,0,1,9.6,15.36,57.436,57.436,0,0,1,1.04,10.08,191.986,191.986,0,0,0,49.84-56,66.507,66.507,0,0,0-4.16-8.8c-3.44-6.16-7.36-10.96-9.52-11.2a8.062,8.062,0,1,1,2-16,25.2,25.2,0,0,1,16,10.32,61.679,61.679,0,0,1,5.28,8,189.187,189.187,0,0,0,16.72-72A7.358,7.358,0,0,1,380,195.96ZM190.4,323.56A132.88,132.88,0,1,1,323.36,190.68,132.88,132.88,0,0,1,190.4,323.56Z" fill="url(#linear-gradient)"/>
    </g>
  </g>
</svg>
